<svg width="70" height="46" viewBox="0 0 70 46" fill="none" xmlns="http://www.w3.org/2000/svg">
<rect x="31.5463" width="7" height="45" fill="#D62718"/>
<rect x="0.546265" y="26" width="7" height="69" transform="rotate(-90 0.546265 26)" fill="#D62718"/>
<path fill-rule="evenodd" clip-rule="evenodd" d="M25.0796 16L0.546268 0L0 0.837611L23.249 16H25.0796ZM29.6796 19H27.849L38.5823 26H40.4129L29.6796 19ZM45.0129 29H43.1823L69 45.8376L69.5463 45L45.0129 29Z" fill="#D62718"/>
<path fill-rule="evenodd" clip-rule="evenodd" d="M44.4667 16L69 0L69.5463 0.837611L46.2973 16H44.4667ZM39.8667 19H41.6973L30.9639 26H29.1333L39.8667 19ZM24.5333 29H26.3639L0.54628 45.8376L1.52588e-05 45L24.5333 29Z" fill="#D62718"/>
</svg>
