<svg width="56" height="56" viewBox="0 0 56 56" fill="none" xmlns="http://www.w3.org/2000/svg">
<g clip-path="url(#clip0)">
<path d="M55.9989 27.9996C55.9989 43.4638 43.4627 56 27.9985 56C12.5343 56 -0.00189209 43.4638 -0.00189209 27.9996C-0.00189209 12.5354 12.5382 0 27.9985 0C43.4588 0 55.9989 12.5378 55.9989 27.9996Z" fill="#FFF200"/>
<path d="M6.04221 28.31C5.00675 29.6439 4.44555 31.2849 4.44739 32.9735C4.44728 34.2077 4.74669 35.4236 5.3199 36.5166C5.89312 37.6097 6.72301 38.5473 7.73836 39.2491C7.73836 39.2491 12.9235 43.2903 28.0562 43.2903C43.1888 43.2903 48.2608 39.2491 48.2608 39.2491C49.1124 38.66 49.8351 37.9037 50.3848 37.0263C50.9346 36.1489 51.3 35.1688 51.4587 34.1456C51.6174 33.1224 51.5661 32.0776 51.3079 31.0749C51.0498 30.0721 50.5901 29.1325 49.957 28.3132C49.957 28.3132 37.6376 13.8852 34.7104 10.9509L34.7025 10.9431C33.8216 10.0617 32.7756 9.36245 31.6243 8.88541C30.4731 8.40837 29.2391 8.16284 27.9929 8.16284C26.7467 8.16284 25.5128 8.40837 24.3615 8.88541C23.2102 9.36245 22.1643 10.0617 21.2833 10.9431L21.2762 10.9501C18.3333 13.8616 6.043 28.3124 6.043 28.3124" fill="#062E28"/>
<path d="M47.4649 33.3616C47.2183 33.0695 46.9022 32.8442 46.5457 32.7064C46.0959 32.54 45.6362 32.4015 45.1693 32.2916C44.6299 32.168 44.2289 32.0423 43.9665 31.9145C43.7041 31.7867 43.5732 31.5918 43.5737 31.33C43.572 31.2039 43.6025 31.0796 43.6623 30.9686C43.7221 30.8577 43.8093 30.7639 43.9155 30.696C44.1428 30.5357 44.4947 30.4556 44.9713 30.4556C45.6522 30.4556 46.3315 30.6559 47.0092 31.0566L47.534 29.7124C47.1709 29.4823 46.773 29.3125 46.3556 29.2096C45.9061 29.0931 45.4435 29.0345 44.9792 29.0352C44.3067 29.0352 43.7376 29.1399 43.272 29.3494C42.8064 29.5589 42.4581 29.8449 42.2271 30.2073C41.9962 30.5673 41.8758 30.9871 41.8807 31.4148C41.8807 31.9244 42.0085 32.3322 42.2641 32.638C42.508 32.9355 42.8246 33.165 43.1833 33.3042C43.6331 33.4708 44.0927 33.6093 44.5597 33.719C44.9263 33.8065 45.2144 33.8866 45.4239 33.9594C45.6163 34.0204 45.7949 34.1186 45.9494 34.2486C46.0152 34.3041 46.0677 34.3736 46.1031 34.4521C46.1386 34.5305 46.1561 34.6158 46.1545 34.7019C46.1549 34.823 46.123 34.942 46.0621 35.0466C46.0012 35.1513 45.9135 35.2379 45.808 35.2974C45.577 35.4466 45.2199 35.5213 44.7364 35.5213C44.2933 35.5199 43.8533 35.4461 43.4339 35.3029C43.0299 35.173 42.65 34.9773 42.3096 34.7239L42.1352 34.5832L41.9388 36.2048C42.2802 36.4202 42.6506 36.5858 43.0387 36.6966C43.5855 36.8611 44.1536 36.9439 44.7246 36.9425C45.3971 36.9425 45.9678 36.8377 46.4365 36.6282C46.9053 36.4187 47.2596 36.133 47.4995 35.7711C47.7325 35.4158 47.855 34.9995 47.8514 34.5746C47.8514 34.065 47.7236 33.6606 47.4681 33.3616" fill="#FFF200"/>
<path d="M19.6358 29.0171C18.8518 29.0171 18.0853 29.2496 17.4334 29.6852C16.7815 30.1208 16.2734 30.7399 15.9733 31.4643C15.6733 32.1887 15.5948 32.9857 15.7477 33.7547C15.9007 34.5237 16.2783 35.2301 16.8327 35.7845C17.3871 36.3389 18.0935 36.7165 18.8624 36.8694C19.6314 37.0224 20.4285 36.9439 21.1529 36.6438C21.8772 36.3438 22.4964 35.8357 22.932 35.1838C23.3676 34.5318 23.6001 33.7654 23.6001 32.9813C23.6001 32.4607 23.4975 31.9453 23.2983 31.4643C23.0991 30.9833 22.8071 30.5463 22.439 30.1782C22.0709 29.8101 21.6338 29.5181 21.1529 29.3188C20.6719 29.1196 20.1564 29.0171 19.6358 29.0171ZM19.6358 35.3626C19.1636 35.3626 18.702 35.2225 18.3094 34.9602C17.9168 34.6979 17.6108 34.325 17.4301 33.8887C17.2494 33.4525 17.2021 32.9724 17.2942 32.5093C17.3863 32.0461 17.6137 31.6207 17.9476 31.2868C18.2815 30.9529 18.7069 30.7255 19.17 30.6334C19.6332 30.5413 20.1132 30.5886 20.5495 30.7693C20.9857 30.95 21.3586 31.256 21.621 31.6486C21.8833 32.0413 22.0233 32.5029 22.0233 32.9751C22.0233 33.6083 21.7718 34.2155 21.3241 34.6633C20.8763 35.111 20.269 35.3626 19.6358 35.3626Z" fill="#FFF200"/>
<path d="M38.2465 29.1497V33.5287C38.2465 33.9953 38.0611 34.4428 37.7311 34.7728C37.4012 35.1028 36.9537 35.2881 36.4871 35.2881C36.0204 35.2881 35.5729 35.1028 35.243 34.7728C34.913 34.4428 34.7277 33.9953 34.7277 33.5287V29.2023H33.07V33.5287C33.07 34.4351 33.43 35.3043 34.0709 35.9452C34.7118 36.5861 35.5811 36.9462 36.4875 36.9462C37.3938 36.9462 38.2631 36.5861 38.904 35.9452C39.5449 35.3043 39.9049 34.4351 39.9049 33.5287V29.1497H38.2465Z" fill="#FFF200"/>
<path d="M31.1232 29.1497H24.8869L24.6929 30.7515H27.1668V36.8291H28.8347V30.7515H31.3173L31.1232 29.1497Z" fill="#FFF200"/>
<path d="M14.8483 35.2162H10.7199V29.1497H9.052V36.8291H14.6527L14.8483 35.2162Z" fill="#FFF200"/>
<path d="M28.0012 24.5814C26.6862 24.5811 25.4121 24.1242 24.3965 23.2889C23.3809 22.4535 22.6868 21.2915 22.4327 20.0012L23.1154 19.3185H25.7166C25.8023 19.7806 26.026 20.2059 26.3582 20.5383C26.6905 20.8707 27.1157 21.0946 27.5777 21.1804V23.0062H29.5206C30.0005 23.0069 30.4681 22.855 30.8559 22.5724C31.2438 22.2898 31.5316 21.8912 31.678 21.4341C31.8243 20.9771 31.8215 20.4854 31.6699 20.0301C31.5184 19.5748 31.226 19.1795 30.8349 18.9014C31.2271 18.6234 31.5206 18.2278 31.6731 17.772C31.8256 17.3161 31.829 16.8236 31.683 16.3656C31.537 15.9076 31.2491 15.508 30.8609 15.2245C30.4727 14.941 30.0044 14.7883 29.5237 14.7886H27.4395C26.8243 14.7876 26.2334 15.0286 25.7944 15.4595L22.3267 18.9273C22.3267 18.921 22.3267 18.9147 22.3267 18.9076C22.3265 17.6235 22.7619 16.3773 23.5616 15.3726C24.3613 14.3679 25.4781 13.6641 26.7295 13.3762C27.9809 13.0883 29.293 13.2333 30.4514 13.7875C31.6097 14.3417 32.5459 15.2724 33.107 16.4274H34.023C33.4494 15.0325 32.4095 13.8797 31.0808 13.166C29.7521 12.4522 28.2169 12.2216 26.7371 12.5136C25.2573 12.8055 23.9247 13.6019 22.9667 14.7669C22.0086 15.9318 21.4845 17.3931 21.4837 18.9014C21.4837 19.1745 21.5008 19.4474 21.5347 19.7184L18.2846 22.9685H19.4685L21.7359 20.7012C22.1093 21.9974 22.8757 23.1457 23.9295 23.9878C24.9833 24.8298 26.2724 25.3241 27.619 25.4024C28.9656 25.4807 30.3033 25.1391 31.4476 24.4248C32.5918 23.7105 33.4862 22.6587 34.0073 21.4146H33.0936C32.6251 22.365 31.8999 23.1653 31 23.7248C30.1002 24.2844 29.0616 24.5808 28.002 24.5806L28.0012 24.5814ZM26.5187 18.9014C26.5193 18.5817 26.6231 18.2708 26.8146 18.0148C27.0061 17.7589 27.2752 17.5716 27.5817 17.4809V20.3218C27.2752 20.2311 27.0061 20.0438 26.8146 19.7879C26.6231 19.5319 26.5193 19.221 26.5187 18.9014ZM30.9528 20.7468C30.9517 21.1249 30.8008 21.4872 30.5331 21.7542C30.2653 22.0212 29.9026 22.1711 29.5245 22.1711H28.4191V21.1797C28.7302 21.1225 29.0263 21.0024 29.2893 20.8268C29.5523 20.6512 29.7767 20.4237 29.9488 20.1583H28.7829C28.6697 20.2295 28.5473 20.285 28.4191 20.3233V19.3185H29.5245C29.903 19.3187 30.2659 19.4691 30.5337 19.7365C30.8014 20.004 30.9522 20.3667 30.9528 20.7452V20.7468ZM28.4191 17.4794C28.5473 17.5177 28.6696 17.5732 28.7829 17.6444H29.9488C29.7767 17.379 29.5523 17.1515 29.2893 16.9759C29.0263 16.8003 28.7302 16.6802 28.4191 16.623V15.6237H29.5245C29.9033 15.6237 30.2666 15.7742 30.5345 16.0421C30.8023 16.3099 30.9528 16.6732 30.9528 17.052C30.9528 17.4308 30.8023 17.7941 30.5345 18.0619C30.2666 18.3298 29.9033 18.4803 29.5245 18.4803H28.4191V17.4794ZM26.3836 16.0543C26.6659 15.7781 27.0453 15.6238 27.4403 15.6245H27.5817V16.6199C27.1196 16.7057 26.6944 16.9296 26.3621 17.262C26.0299 17.5944 25.8062 18.0197 25.7205 18.4818H23.9568L26.3836 16.0543Z" fill="#FFF200"/>
</g>
<defs>
<clipPath id="clip0">
<rect width="56" height="56" fill="white"/>
</clipPath>
</defs>
</svg>
